<svg width="24" height="25" viewBox="0 0 24 25" fill="none" xmlns="http://www.w3.org/2000/svg">
<path d="M12 2.48266C13.1591 2.48291 14.0986 3.42309 14.0986 4.58227C14.0984 5.53068 13.4692 6.33006 12.6055 6.59008C12.5987 6.86676 12.5947 7.14351 12.5947 7.42016C12.5947 7.74404 12.6023 8.06795 12.6162 8.39184C12.6175 8.42197 12.6187 8.45244 12.6201 8.48266C14.5025 8.46232 16.4078 8.34855 18.5449 8.13793C20.7678 7.91887 22.7496 9.63827 22.75 11.9026V13.0852C22.3222 12.4525 21.7969 11.8916 21.1973 11.4211C20.9547 10.3135 19.8952 9.5127 18.6924 9.6311C13.849 10.1084 10.1479 10.1054 5.30566 9.62914C3.93563 9.4944 2.75025 10.5531 2.75 11.8997V19.1096C2.75016 20.4539 3.93069 21.5123 5.29883 21.3821C5.78131 21.3361 6.25287 21.2948 6.71582 21.258C7.11581 20.5971 8.13635 20.1263 9.33398 20.1262C9.57339 20.1262 9.80554 20.1465 10.0273 20.1819C10.2423 20.6573 10.5053 21.1061 10.8125 21.5207C10.5457 21.2151 9.94682 21.0014 9.25 21.0012C8.30472 21.0012 7.53809 21.393 7.53809 21.8762C7.53834 22.3594 8.30488 22.7512 9.25 22.7512C10.1947 22.7509 10.9607 22.3592 10.9609 21.8762C10.9609 21.7748 10.9254 21.6787 10.8633 21.5881C11.1549 21.9725 11.4842 22.3262 11.8447 22.6457C11.3884 23.2252 10.437 23.6261 9.33398 23.6262C8.29693 23.6262 7.39303 23.2719 6.90918 22.7483C6.43031 22.7855 5.94195 22.8275 5.44141 22.8752C3.22253 23.0867 1.25016 21.3685 1.25 19.1096V11.8997C1.25025 9.63675 3.22991 7.91742 5.45215 8.13598C7.59009 8.34625 9.49602 8.4613 11.3789 8.48266C11.3803 8.45242 11.3825 8.42198 11.3838 8.39184C11.3977 8.06795 11.4053 7.74404 11.4053 7.42016C11.4053 7.1435 11.4003 6.86677 11.3936 6.59008C10.5304 6.32966 9.90059 5.53021 9.90039 4.58227C9.90039 3.42309 10.8409 2.48291 12 2.48266ZM21.25 13.4729C22.0715 14.4835 22.5645 15.7722 22.5645 17.176C22.5642 19.8982 20.7118 22.1855 18.1992 22.8518C17.409 22.7805 16.6508 22.7206 15.9141 22.6741C16.3987 22.4916 16.7127 22.2028 16.7129 21.8762C16.7128 21.6086 16.5018 21.3662 16.1592 21.1868C16.9788 21.2402 17.8246 21.3086 18.71 21.3918C20.0733 21.52 21.2498 20.4635 21.25 19.1223V13.4729ZM13.5449 21.0647C13.2738 21.1624 13.0548 21.2945 12.9092 21.4465C12.8868 21.3038 12.8494 21.1697 12.7988 21.0481C13.0466 21.0518 13.2952 21.058 13.5449 21.0647ZM12 3.47778C11.3906 3.47802 10.8955 3.97285 10.8955 4.58227C10.8958 5.19148 11.3908 5.68554 12 5.68578C12.6092 5.68554 13.1033 5.19148 13.1035 4.58227C13.1035 3.97285 12.6094 3.47802 12 3.47778Z" fill="white"/>
<path d="M16.6904 11.301C19.9345 11.3013 22.5643 13.931 22.5645 17.175C22.5645 20.4193 19.9346 23.0498 16.6904 23.05C13.446 23.05 10.8154 20.4194 10.8154 17.175C10.8156 13.9308 13.4462 11.301 16.6904 11.301ZM20.0225 13.092C19.6087 13.0924 19.2727 13.4283 19.2725 13.842V14.0012C18.3406 13.2466 17.0927 12.9212 15.8594 13.178L15.6729 13.2209C14.9551 13.4056 14.3003 13.7827 13.7803 14.3108C13.2603 14.8388 12.8934 15.4986 12.7197 16.219C12.5461 16.9395 12.5726 17.6946 12.7949 18.4016C13.0173 19.1082 13.428 19.7414 13.9824 20.2327C14.5373 20.724 15.2166 21.0554 15.9453 21.1907C16.674 21.3258 17.426 21.2598 18.1201 21.0002C18.8142 20.7406 19.4245 20.2971 19.8857 19.717C20.347 19.1368 20.6419 18.4412 20.7383 17.7063C20.7916 17.296 20.503 16.9195 20.0928 16.8655C19.6824 16.8119 19.305 17.1016 19.251 17.512C19.19 17.9768 19.0037 18.4164 18.7119 18.7834C18.4201 19.1505 18.034 19.4317 17.5947 19.5959C17.1556 19.7601 16.6797 19.8015 16.2188 19.7161C15.7578 19.6305 15.3285 19.4204 14.9775 19.1096C14.6267 18.7988 14.3663 18.3985 14.2256 17.9514C14.085 17.5042 14.0689 17.0263 14.1787 16.5705C14.2886 16.1148 14.5207 15.6975 14.8496 15.3635C15.1785 15.0296 15.592 14.7909 16.0459 14.6741L16.2832 14.6243C17.0337 14.5033 17.7761 14.7181 18.335 15.175H17.9395C17.5257 15.1752 17.1899 15.5113 17.1895 15.925C17.1895 16.3391 17.5254 16.6749 17.9395 16.675H20.0225C20.4367 16.675 20.7725 16.3393 20.7725 15.925V13.842C20.7722 13.4281 20.4365 13.092 20.0225 13.092Z" fill="white"/>
</svg>
