<svg width="24" height="24" viewBox="0 0 24 24" fill="none" xmlns="http://www.w3.org/2000/svg">
<path d="M0.0869141 10.1162C0.0873505 7.85419 2.06829 6.13221 4.29199 6.3584C5.57305 6.48893 6.77805 6.58782 7.94141 6.65918C7.43469 7.08028 6.97243 7.55268 6.55957 8.06641C5.77843 8.00603 4.97503 7.9356 4.14062 7.85059C2.77393 7.71153 1.58735 8.76939 1.58691 10.1162V18.9541C1.58695 20.2988 2.76951 21.3565 4.13477 21.2217C4.7891 21.157 5.42509 21.1016 6.04688 21.0518C6.16964 20.8124 6.36459 20.5935 6.61523 20.4043C6.82745 20.6635 7.05279 20.9114 7.29004 21.1475C7.11804 21.294 7.01869 21.4651 7.01855 21.6484C7.01875 22.1877 7.87389 22.6248 8.92871 22.625C9.01348 22.625 9.09686 22.6207 9.17871 22.6152C9.63738 22.8896 10.1207 23.1258 10.624 23.3232C10.1555 23.4984 9.60889 23.6025 9.02344 23.6025C7.81304 23.6024 6.76515 23.1702 6.24609 22.541C5.60836 22.5912 4.95533 22.6473 4.28223 22.7139C2.06167 22.9333 0.0869494 21.2127 0.0869141 18.9541V10.1162ZM23.9121 18.9668C23.912 21.2192 21.9476 22.94 19.7305 22.7246C19.5271 22.7048 19.3255 22.6883 19.126 22.6699C19.9722 22.1767 20.7379 21.5617 21.3984 20.8467C21.7865 20.586 22.09 20.2128 22.2598 19.7715C23.1235 18.5244 23.7044 17.0683 23.9121 15.4932V18.9668ZM13.002 22.1104C12.9863 22.108 12.9707 22.106 12.9551 22.1035C12.9581 22.0933 12.9629 22.0836 12.9658 22.0732C12.9767 22.0863 12.9901 22.0975 13.002 22.1104ZM9.02344 19.6953C10.7494 19.6954 12.1491 20.5697 12.1494 21.6484C12.1494 21.742 12.1376 21.8338 12.1172 21.9238C11.6584 21.8004 11.2162 21.6375 10.7939 21.4385C10.6529 21.111 10.1912 20.8458 9.58496 20.7324C9.16668 20.4364 8.7784 20.1014 8.4248 19.7324C8.61861 19.7089 8.81865 19.6953 9.02344 19.6953ZM18.2686 21.0869C17.9448 21.2786 17.6069 21.4485 17.2559 21.5938C17.2331 21.3627 17.0707 21.1508 16.8086 20.9775C17.2864 21.0097 17.7723 21.0458 18.2686 21.0869ZM13.5205 20.8262C13.3114 20.922 13.1388 21.0378 13.0146 21.167C12.9951 21.0431 12.9658 20.9247 12.9268 20.8145C13.1242 20.8175 13.322 20.8214 13.5205 20.8262ZM20.0537 6.34082C22.1323 6.31665 23.9116 7.97488 23.9121 10.1191V12.9062C23.5581 10.224 22.1221 7.88384 20.0537 6.34082ZM16.749 6.61719C17.6289 6.91283 18.44 7.35657 19.1533 7.91992C15.4261 8.27629 12.2939 8.37399 8.89551 8.21387C9.57127 7.61461 10.3486 7.12776 11.1992 6.7832C13.021 6.80692 14.8206 6.75243 16.749 6.61719ZM12.6162 6.59668C12.6178 6.63674 12.6194 6.67771 12.6211 6.71777H11.3789C11.379 6.71615 11.3788 6.71452 11.3789 6.71289C11.7748 6.5636 12.1854 6.44382 12.6084 6.3584C12.6108 6.43785 12.6131 6.51729 12.6162 6.59668ZM12 0C13.2937 0.000251406 14.3434 1.04913 14.3438 2.34277C14.3438 3.30122 13.7661 4.12089 12.9414 4.4834C12.4117 4.55138 11.8953 4.66048 11.3955 4.80957C11.3942 4.74088 11.395 4.67216 11.3936 4.60352C10.3939 4.33583 9.65723 3.42682 9.65723 2.34277C9.65762 1.04913 10.7063 0.000251563 12 0ZM12 1.11133C11.32 1.11158 10.7689 1.66281 10.7686 2.34277C10.7686 3.02307 11.3198 3.57494 12 3.5752C12.6802 3.57494 13.2324 3.02307 13.2324 2.34277C13.232 1.66281 12.68 1.11158 12 1.11133Z" fill="white"/>
<path d="M14.2008 6.2002C18.6186 6.2006 22.1999 9.78175 22.2002 14.1994C22.2002 18.6176 18.6188 22.1998 14.2008 22.2001C9.78256 22.2001 6.2002 18.6177 6.2002 14.1994C6.20047 9.78147 9.78283 6.2002 14.2008 6.2002ZM19.1081 15.9323C18.8423 15.6665 18.4112 15.6665 18.1453 15.9323L17.3966 16.6797L16.6492 15.9323C16.3832 15.6665 15.9522 15.6665 15.6863 15.9323C15.4206 16.1983 15.4204 16.6293 15.6863 16.8951L16.4338 17.6426L15.6863 18.3914C15.4207 18.6572 15.4204 19.0883 15.6863 19.3542C15.9522 19.6193 16.3835 19.6196 16.6492 19.3542L17.3966 18.6054L18.1453 19.3542C18.4112 19.6193 18.8425 19.6197 19.1081 19.3542C19.3738 19.0885 19.3732 18.6573 19.1081 18.3914L18.3594 17.6426L19.1081 16.8951C19.3738 16.6295 19.3734 16.1983 19.1081 15.9323ZM13.7088 8.84809C12.563 8.84809 11.4948 9.02063 10.6886 9.32282C10.2882 9.47289 9.91616 9.66872 9.63263 9.91997C9.34992 10.1705 9.09417 10.5356 9.09403 11.0038V16.9058C9.09444 17.3737 9.35005 17.7391 9.63263 17.9896C9.91616 18.2407 10.2885 18.4367 10.6886 18.5868C11.4948 18.8888 12.5632 19.0615 13.7088 19.0616C13.909 19.0615 14.1077 19.0561 14.3019 19.0456C14.6769 19.025 14.9656 18.7039 14.9456 18.3289C14.9252 17.9537 14.6039 17.6666 14.2287 17.6865C14.0599 17.6956 13.8855 17.6997 13.7088 17.6998C12.6831 17.6997 11.7836 17.5428 11.166 17.3114C10.8554 17.1949 10.6503 17.0711 10.5356 16.9696C10.4843 16.924 10.4637 16.893 10.4558 16.8792V15.5386C10.532 15.5719 10.6097 15.6062 10.6886 15.6357C11.4948 15.9378 12.5631 16.1105 13.7088 16.1106C13.9895 16.1105 14.2654 16.0998 14.532 16.08C14.9064 16.0516 15.1872 15.7256 15.1597 15.3511C15.1317 14.9766 14.8054 14.6947 14.431 14.7221C14.1984 14.7395 13.9558 14.7487 13.7088 14.7488C12.6831 14.7487 11.7836 14.5918 11.166 14.3604C10.8555 14.244 10.6503 14.1214 10.5356 14.02C10.4836 13.9738 10.4636 13.9418 10.4558 13.9282V12.5876C10.5321 12.6208 10.6097 12.6552 10.6886 12.6847C11.4948 12.9869 12.5631 13.1608 13.7088 13.1608C14.8549 13.1608 15.9242 12.987 16.7304 12.6847C16.8088 12.6553 16.8859 12.6221 16.9617 12.589V14.6928C16.9623 15.0683 17.2672 15.3735 17.6426 15.3737C18.0181 15.3735 18.323 15.0683 18.3235 14.6928V11.0038C18.3234 10.5361 18.0687 10.1705 17.7862 9.91997C17.5028 9.66872 17.1306 9.47302 16.7304 9.32282C15.9242 9.0205 14.8549 8.84809 13.7088 8.84809ZM13.7088 10.2099C14.7346 10.2099 15.6341 10.3666 16.2516 10.5982C16.5625 10.7149 16.7674 10.8385 16.8819 10.94C16.91 10.9649 16.9263 10.9883 16.9391 11.0038C16.9262 11.0194 16.9105 11.0435 16.8819 11.0689C16.7674 11.1704 16.5625 11.2928 16.2516 11.4094C15.6341 11.6409 14.7348 11.799 13.7088 11.799C12.6831 11.799 11.7836 11.6407 11.166 11.4094C10.8555 11.2929 10.6503 11.1704 10.5356 11.0689C10.5072 11.0437 10.4912 11.0194 10.4784 11.0038C10.4914 10.9883 10.5073 10.9652 10.5356 10.94C10.6503 10.8384 10.855 10.7149 11.166 10.5982C11.7836 10.3666 12.6828 10.2099 13.7088 10.2099Z" fill="white"/>
</svg>
