<svg width="24" height="24" viewBox="0 0 24 24" fill="none" xmlns="http://www.w3.org/2000/svg">
<path d="M0.0869141 10.1162C0.0873501 7.85419 2.06829 6.13221 4.29199 6.3584C5.57305 6.48893 6.77805 6.58782 7.94141 6.65918C7.43469 7.08028 6.97243 7.55268 6.55957 8.06641C5.77843 8.00603 4.97503 7.9356 4.14062 7.85059C2.77393 7.71153 1.58735 8.76939 1.58691 10.1162V18.9541C1.58695 20.2988 2.76951 21.3565 4.13477 21.2217C4.7891 21.157 5.42509 21.1016 6.04688 21.0518C6.16964 20.8124 6.36459 20.5935 6.61523 20.4043C6.82745 20.6635 7.05279 20.9114 7.29004 21.1475C7.11804 21.294 7.01869 21.4651 7.01855 21.6484C7.01875 22.1877 7.87389 22.6248 8.92871 22.625C9.01348 22.625 9.09686 22.6207 9.17871 22.6152C9.63738 22.8896 10.1207 23.1258 10.624 23.3232C10.1555 23.4984 9.60889 23.6025 9.02344 23.6025C7.81304 23.6024 6.76515 23.1702 6.24609 22.541C5.60836 22.5913 4.95533 22.6473 4.28223 22.7139C2.06168 22.9333 0.0869487 21.2127 0.0869141 18.9541V10.1162ZM23.9121 18.9668C23.912 21.2192 21.9476 22.94 19.7305 22.7246C19.5271 22.7048 19.3255 22.6883 19.126 22.6699C19.9722 22.1767 20.7379 21.5617 21.3984 20.8467C21.7865 20.586 22.09 20.2128 22.2598 19.7715C23.1235 18.5244 23.7044 17.0683 23.9121 15.4932V18.9668ZM14.2002 6.2002C16.0623 6.2002 17.7744 6.83832 19.1338 7.90527C19.1402 7.9103 19.1469 7.91488 19.1533 7.91992H19.1523C21.0078 9.38501 22.2001 11.6526 22.2002 14.2002C22.2002 17.4285 20.2868 20.2075 17.5332 21.4717C17.5185 21.4784 17.504 21.4855 17.4893 21.4922C16.4857 21.9455 15.3729 22.2002 14.2002 22.2002C9.78209 22.2 6.2002 18.6184 6.2002 14.2002C6.20026 11.8164 7.24425 9.67756 8.89844 8.21191C8.90431 8.20671 8.91013 8.20147 8.91602 8.19629C9.31715 7.84297 9.75334 7.52885 10.2197 7.26074C10.2473 7.2449 10.275 7.22939 10.3027 7.21387C10.3656 7.1787 10.4292 7.14483 10.4932 7.11133C10.545 7.08417 10.597 7.0573 10.6494 7.03125C10.7064 7.00298 10.7636 6.97518 10.8213 6.94824C10.8672 6.92681 10.9136 6.90633 10.96 6.88574C11.0283 6.85543 11.0967 6.82531 11.166 6.79688C11.1771 6.79233 11.1881 6.7877 11.1992 6.7832H11.2012C11.2602 6.75932 11.3192 6.7354 11.3789 6.71289C11.3825 6.71155 11.3861 6.71032 11.3896 6.70898C11.457 6.68372 11.5246 6.65923 11.5928 6.63574C11.6379 6.62016 11.6831 6.60465 11.7285 6.58984C11.7891 6.57019 11.85 6.55144 11.9111 6.5332C11.9809 6.5123 12.0515 6.49364 12.1221 6.47461C12.1612 6.46412 12.1999 6.45229 12.2393 6.44238C12.3288 6.41973 12.4191 6.39943 12.5098 6.37988C12.5407 6.37323 12.5715 6.36567 12.6025 6.35938C12.6045 6.35898 12.6065 6.35879 12.6084 6.3584C13.1228 6.25451 13.6552 6.20022 14.2002 6.2002ZM12.9922 8.42773C12.3828 8.42773 11.7788 8.54713 11.2158 8.78027C10.6527 9.01352 10.141 9.35615 9.70996 9.78711C9.279 10.2181 8.93639 10.7299 8.70312 11.293C8.46999 11.8559 8.35062 12.46 8.35059 13.0693C8.35063 13.6787 8.46996 14.2827 8.70312 14.8457C8.93637 15.4087 9.27905 15.9206 9.70996 16.3516C10.1409 16.7824 10.6528 17.1242 11.2158 17.3574C11.7789 17.5906 12.3827 17.7109 12.9922 17.7109C13.6016 17.7109 14.2055 17.5906 14.7686 17.3574C15.0676 17.2335 15.3515 17.0778 15.6172 16.8955L18.3496 19.6279C18.6816 19.9599 19.2188 19.9599 19.5508 19.6279C19.8826 19.296 19.8827 18.7587 19.5508 18.4268L16.8184 15.6943C17.0006 15.4287 17.1564 15.1447 17.2803 14.8457C17.5134 14.2827 17.6337 13.6787 17.6338 13.0693C17.6338 12.46 17.5134 11.856 17.2803 11.293C17.0471 10.73 16.7052 10.218 16.2744 9.78711C15.8435 9.3562 15.3316 9.01351 14.7686 8.78027C14.2055 8.54707 13.6016 8.42778 12.9922 8.42773ZM12.9922 10.127C13.3783 10.127 13.7605 10.2039 14.1172 10.3516C14.474 10.4994 14.7991 10.7162 15.0723 10.9893C15.3452 11.2623 15.5622 11.5867 15.71 11.9434C15.8577 12.3001 15.9336 12.6832 15.9336 13.0693C15.9336 13.4553 15.8576 13.8377 15.71 14.1943C15.5622 14.5512 15.3454 14.8763 15.0723 15.1494C14.7991 15.4226 14.4741 15.6393 14.1172 15.7871C13.7605 15.9348 13.3782 16.0107 12.9922 16.0107C12.606 16.0107 12.2231 15.9349 11.8662 15.7871C11.5095 15.6393 11.1852 15.4224 10.9121 15.1494C10.639 14.8763 10.4222 14.5512 10.2744 14.1943C10.1267 13.8377 10.0498 13.4554 10.0498 13.0693C10.0498 12.6831 10.1266 12.3002 10.2744 11.9434C10.4222 11.5866 10.639 11.2624 10.9121 10.9893C11.1852 10.7162 11.5094 10.4994 11.8662 10.3516C12.2231 10.2038 12.6059 10.127 12.9922 10.127ZM20.0537 6.34082C22.1323 6.31665 23.9116 7.97488 23.9121 10.1191V12.9062C23.5581 10.224 22.1221 7.88384 20.0537 6.34082ZM12 0C13.2937 0.000251406 14.3434 1.04913 14.3438 2.34277C14.3438 3.30122 13.7661 4.12089 12.9414 4.4834C12.4117 4.55138 11.8953 4.66048 11.3955 4.80957C11.3942 4.74088 11.395 4.67216 11.3936 4.60352C10.3939 4.33583 9.65723 3.42682 9.65723 2.34277C9.65762 1.04913 10.7063 0.000251563 12 0ZM12 1.11133C11.32 1.11158 10.7689 1.66281 10.7686 2.34277C10.7686 3.02307 11.3198 3.57494 12 3.5752C12.6802 3.57494 13.2324 3.02307 13.2324 2.34277C13.232 1.66281 12.68 1.11158 12 1.11133Z" fill="white"/>
</svg>
