<svg width="24" height="25" viewBox="0 0 24 25" fill="none" xmlns="http://www.w3.org/2000/svg">
<path d="M12 2.48266C13.1591 2.48291 14.0986 3.42309 14.0986 4.58227C14.0984 5.53068 13.4692 6.33006 12.6055 6.59008C12.5987 6.86676 12.5947 7.14351 12.5947 7.42016C12.5947 7.74404 12.6023 8.06795 12.6162 8.39184C12.6175 8.42197 12.6187 8.45244 12.6201 8.48266C14.5025 8.46232 16.4078 8.34855 18.5449 8.13793C20.7678 7.91887 22.7496 9.63827 22.75 11.9026V13.0852C22.3222 12.4525 21.7969 11.8916 21.1973 11.4211C20.9547 10.3135 19.8952 9.5127 18.6924 9.6311C13.849 10.1084 10.1479 10.1054 5.30566 9.62914C3.93563 9.4944 2.75025 10.5531 2.75 11.8997V19.1096C2.75027 20.4538 3.93077 21.5123 5.29883 21.3821C5.78167 21.3361 6.25352 21.2938 6.7168 21.2571C7.11728 20.5967 8.13704 20.1263 9.33398 20.1262C9.57339 20.1262 9.80554 20.1465 10.0273 20.1819C10.2423 20.6573 10.5053 21.1061 10.8125 21.5207C10.5457 21.2151 9.94682 21.0014 9.25 21.0012C8.30472 21.0012 7.53809 21.393 7.53809 21.8762C7.53834 22.3594 8.30488 22.7512 9.25 22.7512C10.1947 22.7509 10.9607 22.3592 10.9609 21.8762C10.9609 21.7748 10.9254 21.6787 10.8633 21.5881C11.1549 21.9725 11.4842 22.3262 11.8447 22.6457C11.3884 23.2252 10.437 23.6261 9.33398 23.6262C8.29626 23.6262 7.39182 23.2715 6.9082 22.7473C6.42962 22.7845 5.94163 22.8276 5.44141 22.8752C3.2226 23.0867 1.25027 21.3684 1.25 19.1096V11.8997C1.25025 9.63675 3.22991 7.91742 5.45215 8.13598C7.59008 8.34625 9.49603 8.4613 11.3789 8.48266C11.3803 8.45242 11.3825 8.42198 11.3838 8.39184C11.3977 8.06795 11.4053 7.74404 11.4053 7.42016C11.4053 7.1435 11.4003 6.86677 11.3936 6.59008C10.5304 6.32966 9.90059 5.53021 9.90039 4.58227C9.90039 3.42309 10.8409 2.48291 12 2.48266ZM21.25 13.4729C22.0715 14.4835 22.5645 15.7722 22.5645 17.176C22.5642 19.8982 20.7118 22.1855 18.1992 22.8518C17.409 22.7805 16.6508 22.7206 15.9141 22.6741C16.3986 22.4917 16.7126 22.2027 16.7129 21.8762C16.7128 21.6086 16.5018 21.3662 16.1592 21.1868C16.9788 21.2402 17.8247 21.3086 18.71 21.3918C20.0733 21.52 21.2497 20.4634 21.25 19.1223V13.4729ZM13.5449 21.0647C13.2738 21.1624 13.0548 21.2945 12.9092 21.4465C12.8868 21.3039 12.8494 21.1696 12.7988 21.0481C13.0466 21.0518 13.2952 21.058 13.5449 21.0647ZM12 3.47778C11.3906 3.47802 10.8955 3.97285 10.8955 4.58227C10.8958 5.19148 11.3908 5.68554 12 5.68578C12.6092 5.68554 13.1033 5.19148 13.1035 4.58227C13.1035 3.97285 12.6094 3.47802 12 3.47778Z" fill="white"/>
<path d="M16.6904 11.301C19.9345 11.3013 22.5643 13.931 22.5645 17.175C22.5645 20.4193 19.9346 23.0498 16.6904 23.05C13.446 23.05 10.8154 20.4194 10.8154 17.175C10.8156 13.9308 13.4462 11.301 16.6904 11.301ZM16.6904 19.1926C16.2762 19.1926 15.9405 19.5284 15.9404 19.9426C15.9405 20.3568 16.2763 20.6926 16.6904 20.6926H16.6943C17.1083 20.6924 17.4443 20.3566 17.4443 19.9426C17.4443 19.5286 17.1083 19.1929 16.6943 19.1926H16.6904ZM16.6943 13.6584C16.2803 13.6586 15.9444 13.9943 15.9443 14.4084V17.8899C15.9445 18.3039 16.2803 18.6397 16.6943 18.6399C17.1082 18.6396 17.4442 18.3038 17.4443 17.8899V14.4084C17.4443 13.9944 17.1083 13.6587 16.6943 13.6584Z" fill="white"/>
</svg>
