<svg width="24" height="25" viewBox="0 0 24 25" fill="none" xmlns="http://www.w3.org/2000/svg">
<path d="M0.0869141 10.6162C0.0873519 8.35419 2.06829 6.63221 4.29199 6.8584C9.91969 7.43181 14.077 7.43522 19.7041 6.86035C21.9287 6.63316 23.9116 8.35553 23.9121 10.6191V19.4668C23.912 21.7192 21.9476 23.44 19.7305 23.2246C19.072 23.1606 18.4341 23.105 17.8125 23.0557C17.2893 23.6769 16.2488 24.1025 15.0479 24.1025C13.6078 24.1025 12.3976 23.4922 12.0352 22.6641C11.6725 23.492 10.4632 24.1025 9.02344 24.1025C7.81304 24.1024 6.76515 23.6702 6.24609 23.041C5.60836 23.0912 4.95533 23.1473 4.28223 23.2139C2.06167 23.4333 0.0869507 21.7127 0.0869141 19.4541V10.6162ZM8.92871 21.1719C7.87401 21.172 7.01894 21.6093 7.01855 22.1484C7.01875 22.6877 7.87389 23.1248 8.92871 23.125C9.98373 23.125 10.8397 22.6878 10.8398 22.1484C10.8395 21.6092 9.98361 21.1719 8.92871 21.1719ZM15.1357 21.1719C14.0808 21.1719 13.225 21.6092 13.2246 22.1484C13.2248 22.6878 14.0807 23.1249 15.1357 23.125C16.1909 23.125 17.0467 22.6878 17.0469 22.1484C17.0465 21.6092 16.1908 21.1719 15.1357 21.1719ZM4.14062 8.35059C2.77393 8.21153 1.58735 9.26939 1.58691 10.6162V19.4541C1.58695 20.7988 2.7695 21.8565 4.13477 21.7217C4.7891 21.657 5.42509 21.6016 6.04688 21.5518C6.4504 20.7649 7.63053 20.1955 9.02344 20.1953C10.4629 20.1953 11.6722 20.8051 12.0352 21.6328C12.3978 20.8049 13.6081 20.1953 15.0479 20.1953C16.4517 20.1954 17.6388 20.7739 18.0332 21.5703C18.6312 21.6182 19.244 21.6711 19.875 21.7324C21.2354 21.8647 22.412 20.8088 22.4121 19.4668V10.6191C22.4116 9.27163 21.2245 8.2128 19.8564 8.35254C14.1273 8.93783 9.86848 8.93418 4.14062 8.35059ZM8.2207 12.793C8.61117 12.4026 9.24425 12.4027 9.63477 12.793L9.78125 12.9395C10.1714 13.33 10.1716 13.9631 9.78125 14.3535L9.09082 15.043L9.78125 15.7334C10.1714 16.1239 10.1716 16.7571 9.78125 17.1475L9.63477 17.293C9.24428 17.6833 8.6112 17.6833 8.2207 17.293L7.53027 16.6025L6.84082 17.293C6.45034 17.6833 5.81725 17.6833 5.42676 17.293L5.28125 17.1475C4.89077 16.757 4.89086 16.1239 5.28125 15.7334L5.9707 15.043L5.28125 14.3535C4.89077 13.963 4.89085 13.33 5.28125 12.9395L5.42676 12.793C5.81722 12.4026 6.4503 12.4027 6.84082 12.793L7.53027 13.4824L8.2207 12.793ZM17.1572 12.793C17.5477 12.4026 18.1817 12.4026 18.5723 12.793L18.7178 12.9385C19.1082 13.3289 19.1081 13.962 18.7178 14.3525L18.0273 15.042L18.7178 15.7324C19.1082 16.1229 19.1082 16.756 18.7178 17.1465L18.5723 17.292C18.1817 17.6824 17.5477 17.6824 17.1572 17.292L16.4678 16.6025L15.7783 17.292C15.3878 17.6824 14.7538 17.6824 14.3633 17.292L14.2178 17.1465C13.8274 16.756 13.8274 16.1229 14.2178 15.7324L14.9072 15.042L14.2178 14.3525C13.8276 13.9621 13.8274 13.3289 14.2178 12.9385L14.3633 12.793C14.7538 12.4026 15.3878 12.4026 15.7783 12.793L16.4678 13.4824L17.1572 12.793ZM12 0.5C13.2937 0.500251 14.3434 1.54913 14.3438 2.84277C14.3438 3.92701 13.6055 4.836 12.6055 5.10352C12.599 5.4061 12.5947 5.70923 12.5947 6.01172C12.5947 6.37311 12.6023 6.73529 12.6162 7.09668C12.6178 7.13674 12.6194 7.17771 12.6211 7.21777H11.3789C11.3806 7.17771 11.3822 7.13674 11.3838 7.09668C11.3977 6.73529 11.4053 6.37311 11.4053 6.01172C11.4053 5.70922 11.4 5.40611 11.3936 5.10352C10.3939 4.83583 9.65723 3.92682 9.65723 2.84277C9.65762 1.54913 10.7063 0.500252 12 0.5ZM12 1.61133C11.32 1.61158 10.7689 2.16281 10.7686 2.84277C10.7686 3.52307 11.3198 4.07494 12 4.0752C12.6802 4.07494 13.2324 3.52307 13.2324 2.84277C13.232 2.16281 12.68 1.61158 12 1.61133Z" fill="white"/>
</svg>
