<svg width="24" height="24" viewBox="0 0 24 24" fill="none" xmlns="http://www.w3.org/2000/svg">
<path d="M0.0869141 10.1172C0.0870536 7.85488 2.06808 6.1331 4.29199 6.35938C5.57269 6.48987 6.77737 6.5888 7.94043 6.66016C7.43378 7.08133 6.97139 7.5536 6.55859 8.06738C5.77776 8.00703 4.97468 7.93654 4.14062 7.85156C2.77371 7.71243 1.58705 8.77009 1.58691 10.1172V18.9551C1.58722 20.2996 2.76969 21.3574 4.13477 21.2227C4.78912 21.158 5.42508 21.1019 6.04688 21.0518C6.16964 20.8124 6.36459 20.5935 6.61523 20.4043C6.82745 20.6635 7.05279 20.9114 7.29004 21.1475C7.11804 21.294 7.01869 21.4651 7.01855 21.6484C7.01875 22.1877 7.87389 22.6248 8.92871 22.625C9.01348 22.625 9.09686 22.6207 9.17871 22.6152C9.63738 22.8896 10.1207 23.1258 10.624 23.3232C10.1555 23.4984 9.60889 23.6025 9.02344 23.6025C7.81304 23.6024 6.76515 23.1702 6.24609 22.541C5.60835 22.5915 4.95535 22.6483 4.28223 22.7148C2.06185 22.9342 0.0872217 21.2134 0.0869141 18.9551V10.1172ZM23.9121 18.9678C23.9118 21.2199 21.9475 22.941 19.7305 22.7256C19.5268 22.7058 19.3249 22.6884 19.125 22.6699C19.9711 22.1768 20.737 21.5624 21.3975 20.8477C21.7858 20.5869 22.0898 20.214 22.2598 19.7725C23.1238 18.5252 23.7044 17.0686 23.9121 15.4932V18.9678ZM14.2002 6.2002C18.6184 6.2002 22.2001 9.78202 22.2002 14.2002C22.2002 17.4277 20.2876 20.2061 17.5352 21.4707C17.5189 21.4782 17.5027 21.4858 17.4863 21.4932C16.4835 21.9457 15.3719 22.2002 14.2002 22.2002C9.78209 22.2 6.2002 18.6184 6.2002 14.2002C6.20026 11.8177 7.24283 9.67945 8.89551 8.21387H8.89453C8.92684 8.18522 8.9604 8.15802 8.99316 8.12988C9.04098 8.08883 9.08793 8.04677 9.13672 8.00684C9.20186 7.95352 9.26911 7.90283 9.33594 7.85156C9.42977 7.77956 9.52502 7.70947 9.62207 7.6416C9.64938 7.62251 9.67557 7.60177 9.70312 7.58301C9.76474 7.54105 9.82779 7.5012 9.89062 7.46094C9.92574 7.43844 9.9606 7.41551 9.99609 7.39355C10.0745 7.34504 10.1542 7.29878 10.2344 7.25293C10.253 7.24229 10.2713 7.2312 10.29 7.2207C10.3623 7.18016 10.4352 7.14089 10.5088 7.10254C10.5509 7.08062 10.5932 7.05927 10.6357 7.03809C10.6985 7.00679 10.7615 6.97597 10.8252 6.94629C10.8678 6.92642 10.9111 6.90781 10.9541 6.88867C11.0257 6.85684 11.0972 6.8247 11.1699 6.79492C11.179 6.79121 11.1882 6.78786 11.1973 6.78418H11.1992C11.2589 6.76001 11.3185 6.73565 11.3789 6.71289C11.3825 6.71155 11.3861 6.71032 11.3896 6.70898C11.457 6.68372 11.5246 6.65923 11.5928 6.63574C11.6379 6.62016 11.6831 6.60465 11.7285 6.58984C11.7891 6.57019 11.85 6.55144 11.9111 6.5332C11.9797 6.51268 12.0489 6.4943 12.1182 6.47559C12.1585 6.46473 12.1986 6.45262 12.2393 6.44238C12.331 6.41917 12.4236 6.39886 12.5166 6.37891C12.5453 6.37276 12.5737 6.36522 12.6025 6.35938C12.6045 6.35898 12.6065 6.35879 12.6084 6.3584C13.1228 6.25451 13.6552 6.20022 14.2002 6.2002ZM17.2285 14.5508C16.5917 14.5508 15.9806 14.8046 15.5303 15.2549C15.0799 15.7053 14.8262 16.3162 14.8262 16.9531C14.8262 17.59 15.08 18.201 15.5303 18.6514C15.9806 19.1015 16.5918 19.3544 17.2285 19.3545C17.6079 19.3544 17.9771 19.2626 18.3096 19.0947L18.9004 19.6855C19.1933 19.9782 19.6681 19.9783 19.9609 19.6855C20.2537 19.3927 20.2536 18.9179 19.9609 18.625L19.3701 18.0342C19.5379 17.7017 19.6299 17.3325 19.6299 16.9531C19.6299 16.3163 19.377 15.7052 18.9268 15.2549C18.4765 14.8046 17.8653 14.5509 17.2285 14.5508ZM10.6211 8.49512C9.9843 8.49524 9.37314 8.74795 8.92285 9.19824C8.47257 9.64855 8.21982 10.2597 8.21973 10.8965V15.3008C8.21973 15.9375 8.47277 16.5487 8.92285 16.999C9.37314 17.4493 9.9843 17.703 10.6211 17.7031H11.9629L13.3945 19.1348C13.6874 19.4276 14.1622 19.4276 14.4551 19.1348C14.7479 18.8419 14.7479 18.3671 14.4551 18.0742L12.8037 16.4229C12.6982 16.3174 12.5641 16.2466 12.4199 16.2178L12.2734 16.2031H10.6211C10.3821 16.203 10.1524 16.1075 9.9834 15.9385C9.81462 15.7694 9.71973 15.5397 9.71973 15.3008V10.8965C9.71982 10.6575 9.81442 10.4278 9.9834 10.2588C10.1524 10.0898 10.3821 9.99524 10.6211 9.99512H17.2285C17.4672 9.99523 17.6963 10.0901 17.8652 10.2588C18.0342 10.4278 18.1298 10.6575 18.1299 10.8965V13.374C18.1299 13.7882 18.4657 14.1239 18.8799 14.124C19.294 14.124 19.6299 13.7882 19.6299 13.374V10.8965C19.6298 10.2597 19.377 9.64855 18.9268 9.19824C18.4765 8.74801 17.8653 8.49523 17.2285 8.49512H10.6211ZM17.2285 16.0508C17.4674 16.0509 17.6963 16.1466 17.8652 16.3154C18.0343 16.4845 18.1299 16.714 18.1299 16.9531C18.1298 17.1922 18.0343 17.4218 17.8652 17.5908C17.6963 17.7595 17.4673 17.8544 17.2285 17.8545C16.9896 17.8544 16.7598 17.7597 16.5908 17.5908C16.4218 17.4218 16.3262 17.1921 16.3262 16.9531C16.3262 16.714 16.4218 16.4845 16.5908 16.3154C16.7599 16.1464 16.9895 16.0508 17.2285 16.0508ZM11.7227 13.4502C11.3085 13.4503 10.9727 13.7861 10.9727 14.2002C10.9727 14.6143 11.3085 14.9501 11.7227 14.9502H14.4756C14.8897 14.95 15.2256 14.6143 15.2256 14.2002C15.2256 13.7861 14.8897 13.4503 14.4756 13.4502H11.7227ZM20.0557 6.3418C22.1336 6.31861 23.9119 7.97627 23.9121 10.1201V12.9062C23.5582 10.2247 22.1231 7.88483 20.0557 6.3418ZM11.7227 11.248C11.3085 11.2481 10.9727 11.5839 10.9727 11.998C10.9727 12.4121 11.3086 12.748 11.7227 12.748H16.127C16.5411 12.748 16.8769 12.4122 16.877 11.998C16.8769 11.5839 16.5411 11.248 16.127 11.248H11.7227ZM12 0C13.2937 0.000251406 14.3434 1.04913 14.3438 2.34277C14.3438 3.30122 13.7661 4.12089 12.9414 4.4834C12.4117 4.55138 11.8953 4.66048 11.3955 4.80957C11.3942 4.74088 11.395 4.67216 11.3936 4.60352C10.3939 4.33583 9.65723 3.42682 9.65723 2.34277C9.65762 1.04913 10.7063 0.000251563 12 0ZM12 1.11133C11.32 1.11158 10.7689 1.66281 10.7686 2.34277C10.7686 3.02307 11.3198 3.57494 12 3.5752C12.6802 3.57494 13.2324 3.02307 13.2324 2.34277C13.232 1.66281 12.68 1.11158 12 1.11133Z" fill="white"/>
</svg>
