<svg width="24" height="24" viewBox="0 0 24 24" fill="none" xmlns="http://www.w3.org/2000/svg">
<path d="M0.0869141 10.1172C0.0870536 7.85488 2.06808 6.13311 4.29199 6.35938C5.57269 6.48987 6.77737 6.5888 7.94043 6.66016C7.43378 7.08133 6.97139 7.5536 6.55859 8.06738C5.77776 8.00702 4.97468 7.93654 4.14062 7.85156C2.77372 7.71243 1.58705 8.7701 1.58691 10.1172V18.9551C1.58722 20.2996 2.76969 21.3574 4.13477 21.2227C4.78912 21.158 5.42508 21.1019 6.04688 21.0518C6.16964 20.8124 6.36459 20.5935 6.61523 20.4043C6.82745 20.6635 7.05279 20.9114 7.29004 21.1475C7.11804 21.294 7.01869 21.4651 7.01855 21.6484C7.01875 22.1877 7.87389 22.6248 8.92871 22.625C9.01348 22.625 9.09686 22.6207 9.17871 22.6152C9.63738 22.8896 10.1207 23.1258 10.624 23.3232C10.1555 23.4984 9.60889 23.6025 9.02344 23.6025C7.81304 23.6024 6.76515 23.1702 6.24609 22.541C5.60835 22.5915 4.95534 22.6483 4.28223 22.7148C2.06185 22.9342 0.0872219 21.2134 0.0869141 18.9551V10.1172ZM23.9121 18.9678C23.9118 21.2199 21.9475 22.941 19.7305 22.7256C19.5268 22.7058 19.3249 22.6884 19.125 22.6699C19.9711 22.1768 20.737 21.5624 21.3975 20.8477C21.7858 20.5869 22.0898 20.214 22.2598 19.7725C23.1238 18.5252 23.7044 17.0686 23.9121 15.4932V18.9678ZM14.2002 6.2002C18.6184 6.2002 22.2001 9.78202 22.2002 14.2002C22.2002 17.4277 20.2876 20.2061 17.5352 21.4707C17.5189 21.4782 17.5027 21.4858 17.4863 21.4932C16.4835 21.9457 15.3719 22.2002 14.2002 22.2002C9.78209 22.2 6.2002 18.6184 6.2002 14.2002C6.20026 11.8177 7.24283 9.67945 8.89551 8.21387H8.89453C8.92684 8.18521 8.9604 8.15802 8.99316 8.12988C9.04098 8.08883 9.08793 8.04677 9.13672 8.00684C9.20186 7.95352 9.26911 7.90283 9.33594 7.85156C9.42977 7.77956 9.52503 7.70947 9.62207 7.6416C9.64938 7.62251 9.67557 7.60177 9.70312 7.58301C9.76474 7.54105 9.82779 7.5012 9.89062 7.46094C9.92574 7.43844 9.9606 7.41551 9.99609 7.39355C10.0745 7.34505 10.1542 7.29878 10.2344 7.25293C10.253 7.24229 10.2713 7.2312 10.29 7.2207C10.3623 7.18016 10.4352 7.14089 10.5088 7.10254C10.5509 7.08062 10.5932 7.05927 10.6357 7.03809C10.6985 7.00679 10.7615 6.97597 10.8252 6.94629C10.8678 6.92642 10.9111 6.90781 10.9541 6.88867C11.0257 6.85683 11.0972 6.8247 11.1699 6.79492C11.179 6.79121 11.1882 6.78786 11.1973 6.78418H11.1992C11.2589 6.76001 11.3185 6.73565 11.3789 6.71289C11.3825 6.71155 11.3861 6.71032 11.3896 6.70898C11.457 6.68372 11.5246 6.65923 11.5928 6.63574C11.6379 6.62016 11.6831 6.60465 11.7285 6.58984C11.7891 6.57019 11.85 6.55144 11.9111 6.5332C11.9797 6.51268 12.0489 6.4943 12.1182 6.47559C12.1585 6.46473 12.1986 6.45262 12.2393 6.44238C12.331 6.41917 12.4236 6.39886 12.5166 6.37891C12.5453 6.37276 12.5737 6.36522 12.6025 6.35938C12.6045 6.35898 12.6065 6.35879 12.6084 6.3584C13.1228 6.25451 13.6552 6.20022 14.2002 6.2002ZM13.2744 8.50879C12.45 8.36735 11.6015 8.48434 10.8467 8.84473C10.627 8.94966 10.4718 9.15554 10.4307 9.39551C10.3896 9.63536 10.4676 9.88066 10.6396 10.0527L12.3418 11.7549V12.3418H11.7549L10.0527 10.6396C9.88066 10.4676 9.63536 10.3896 9.39551 10.4307C9.18534 10.4667 9.00147 10.5899 8.88867 10.7676L8.84473 10.8467C8.48434 11.6015 8.36735 12.45 8.50879 13.2744C8.65031 14.0986 9.04348 14.8588 9.63477 15.4502C10.2263 16.0417 10.987 16.4357 11.8115 16.5771C12.4556 16.6877 13.1133 16.6374 13.7305 16.4395L16.6807 19.3896C17.0398 19.7488 17.5273 19.9502 18.0352 19.9502C18.5431 19.9502 19.0305 19.7488 19.3896 19.3896C19.7488 19.0305 19.9502 18.5431 19.9502 18.0352C19.9502 17.5273 19.7488 17.0398 19.3896 16.6807L16.4395 13.7305C16.6374 13.1133 16.6877 12.4556 16.5771 11.8115C16.4357 10.987 16.0417 10.2263 15.4502 9.63477C14.8588 9.04348 14.0986 8.65031 13.2744 8.50879ZM12.6602 9.95117C12.7804 9.95449 12.901 9.96679 13.0205 9.9873C13.5391 10.0763 14.0175 10.3233 14.3896 10.6953C14.7619 11.0675 15.0096 11.5466 15.0986 12.0654C15.1876 12.5841 15.1135 13.1179 14.8867 13.5928C14.7498 13.8795 14.8085 14.2216 15.0332 14.4463L18.3291 17.7412C18.4069 17.8191 18.4502 17.9251 18.4502 18.0352C18.4502 18.1452 18.4069 18.2513 18.3291 18.3291C18.2513 18.4069 18.1452 18.4502 18.0352 18.4502C17.9251 18.4502 17.8191 18.4069 17.7412 18.3291L14.4463 15.0332C14.2496 14.8365 13.9629 14.7671 13.7021 14.8447L13.5928 14.8867C13.1179 15.1135 12.5841 15.1876 12.0654 15.0986C11.5466 15.0096 11.0675 14.7619 10.6953 14.3896C10.3233 14.0175 10.0763 13.5391 9.9873 13.0205C9.96679 12.901 9.95449 12.7804 9.95117 12.6602L10.9141 13.6221C11.0547 13.7627 11.2454 13.8418 11.4443 13.8418H13.0918C13.506 13.8418 13.8418 13.506 13.8418 13.0918V11.4443C13.8418 11.2454 13.7627 11.0547 13.6221 10.9141L12.6602 9.95117ZM20.0557 6.3418C22.1336 6.31861 23.9119 7.97627 23.9121 10.1201V12.9062C23.5582 10.2247 22.1231 7.88483 20.0557 6.3418ZM12 0C13.2937 0.000251406 14.3434 1.04913 14.3438 2.34277C14.3438 3.30122 13.7661 4.12089 12.9414 4.4834C12.4117 4.55138 11.8953 4.66048 11.3955 4.80957C11.3942 4.74088 11.395 4.67216 11.3936 4.60352C10.3939 4.33583 9.65723 3.42682 9.65723 2.34277C9.65762 1.04913 10.7063 0.000251563 12 0ZM12 1.11133C11.32 1.11158 10.7689 1.66281 10.7686 2.34277C10.7686 3.02307 11.3198 3.57494 12 3.5752C12.6802 3.57494 13.2324 3.02307 13.2324 2.34277C13.232 1.66281 12.68 1.11158 12 1.11133Z" fill="white"/>
</svg>
