<svg width="24" height="24" viewBox="0 0 24 24" fill="none" xmlns="http://www.w3.org/2000/svg">
<path d="M0.0869141 10.1172C0.0870536 7.85488 2.06809 6.13311 4.29199 6.35938C9.91966 6.93278 14.077 6.93619 19.7041 6.36133C21.9289 6.1341 23.9119 7.85624 23.9121 10.1201V18.9678C23.9118 21.2199 21.9475 22.941 19.7305 22.7256C19.0719 22.6615 18.4341 22.6053 17.8125 22.5557C17.2893 23.1769 16.2488 23.6025 15.0479 23.6025C13.6078 23.6025 12.3976 22.9922 12.0352 22.1641C11.6725 22.992 10.4632 23.6025 9.02344 23.6025C7.81341 23.6024 6.76532 23.1709 6.24609 22.542C5.60836 22.5922 4.95532 22.6483 4.28223 22.7148C2.06185 22.9342 0.087222 21.2134 0.0869141 18.9551V10.1172ZM8.92871 20.6719C7.87401 20.672 7.01894 21.1093 7.01855 21.6484C7.01875 22.1877 7.87389 22.6248 8.92871 22.625C9.98373 22.625 10.8397 22.1878 10.8398 21.6484C10.8395 21.1092 9.98361 20.6719 8.92871 20.6719ZM15.1357 20.6719C14.0808 20.6719 13.225 21.1092 13.2246 21.6484C13.2248 22.1877 14.0807 22.6249 15.1357 22.625C16.1909 22.625 17.0467 22.1878 17.0469 21.6484C17.0465 21.1092 16.1908 20.6719 15.1357 20.6719ZM4.14062 7.85156C2.77372 7.71244 1.58705 8.7701 1.58691 10.1172V18.9551C1.58722 20.2996 2.76969 21.3574 4.13477 21.2227C4.78912 21.158 5.42506 21.1016 6.04688 21.0518C6.4504 20.2649 7.63053 19.6955 9.02344 19.6953C10.4629 19.6953 11.6722 20.3051 12.0352 21.1328C12.3978 20.3049 13.6081 19.6953 15.0479 19.6953C16.4517 19.6954 17.6388 20.2739 18.0332 21.0703C18.6312 21.1185 19.244 21.172 19.875 21.2334C21.2352 21.3657 22.4118 20.3096 22.4121 18.9678V10.1201C22.4119 8.77235 21.2247 7.71374 19.8564 7.85352C14.1274 8.4388 9.86845 8.43515 4.14062 7.85156ZM8.2207 12.293C8.61115 11.9026 9.24424 11.9027 9.63477 12.293L9.78125 12.4395C10.1714 12.83 10.1716 13.4631 9.78125 13.8535L9.09082 14.543L9.78125 15.2334C10.1714 15.6239 10.1716 16.257 9.78125 16.6475L9.63477 16.793C9.24425 17.1834 8.6112 17.1834 8.2207 16.793L7.53027 16.1025L6.84082 16.793C6.45031 17.1834 5.81726 17.1834 5.42676 16.793L5.28125 16.6475C4.8908 16.257 4.89083 15.6239 5.28125 15.2334L5.9707 14.543L5.28125 13.8535C4.8908 13.463 4.89083 12.83 5.28125 12.4395L5.42676 12.293C5.81721 11.9026 6.4503 11.9027 6.84082 12.293L7.53027 12.9824L8.2207 12.293ZM17.1572 12.293C17.5478 11.9026 18.1817 11.9026 18.5723 12.293L18.7178 12.4385C19.1082 12.8289 19.1081 13.462 18.7178 13.8525L18.0273 14.542L18.7178 15.2324C19.1082 15.6229 19.1082 16.256 18.7178 16.6465L18.5723 16.792C18.1817 17.1824 17.5477 17.1824 17.1572 16.792L16.4678 16.1025L15.7783 16.792C15.3878 17.1824 14.7538 17.1824 14.3633 16.792L14.2178 16.6465C13.8274 16.256 13.8274 15.6229 14.2178 15.2324L14.9072 14.542L14.2178 13.8525C13.8276 13.4621 13.8274 12.8289 14.2178 12.4385L14.3633 12.293C14.7538 11.9026 15.3878 11.9026 15.7783 12.293L16.4678 12.9824L17.1572 12.293ZM12 0C13.2937 0.000251406 14.3434 1.04913 14.3438 2.34277C14.3438 3.42701 13.6055 4.336 12.6055 4.60352C12.599 4.9061 12.5947 5.20923 12.5947 5.51172C12.5947 5.87311 12.6023 6.23529 12.6162 6.59668C12.6178 6.63674 12.6194 6.67771 12.6211 6.71777H11.3789C11.3806 6.67771 11.3822 6.63674 11.3838 6.59668C11.3977 6.23529 11.4053 5.87311 11.4053 5.51172C11.4053 5.20923 11.4 4.90611 11.3936 4.60352C10.3939 4.33583 9.65723 3.42682 9.65723 2.34277C9.65762 1.04913 10.7063 0.000251563 12 0ZM12 1.11133C11.32 1.11158 10.7689 1.66281 10.7686 2.34277C10.7686 3.02307 11.3198 3.57494 12 3.5752C12.6802 3.57494 13.2324 3.02307 13.2324 2.34277C13.232 1.66281 12.68 1.11158 12 1.11133Z" fill="white"/>
</svg>
