<svg width="24" height="24" viewBox="0 0 24 24" fill="none" xmlns="http://www.w3.org/2000/svg">
<path d="M0.0869141 10.1172C0.0870536 7.85488 2.06809 6.13311 4.29199 6.35938C5.57269 6.48987 6.77737 6.5888 7.94043 6.66016C7.43378 7.08133 6.97139 7.5536 6.55859 8.06738C5.77776 8.00702 4.97468 7.93654 4.14062 7.85156C2.77372 7.71243 1.58705 8.7701 1.58691 10.1172V18.9551C1.58722 20.2996 2.76969 21.3574 4.13477 21.2227C4.78912 21.158 5.42506 21.1016 6.04688 21.0518C6.16964 20.8124 6.36459 20.5935 6.61523 20.4043C6.82745 20.6635 7.05279 20.9114 7.29004 21.1475C7.11804 21.294 7.01869 21.4651 7.01855 21.6484C7.01875 22.1877 7.87389 22.6248 8.92871 22.625C9.01348 22.625 9.09686 22.6207 9.17871 22.6152C9.63738 22.8896 10.1207 23.1258 10.624 23.3232C10.1555 23.4984 9.60889 23.6025 9.02344 23.6025C7.81304 23.6024 6.76515 23.1702 6.24609 22.541C5.60836 22.5915 4.95534 22.6483 4.28223 22.7148C2.06185 22.9342 0.087222 21.2134 0.0869141 18.9551V10.1172ZM23.9121 18.9678C23.9118 21.2199 21.9475 22.941 19.7305 22.7256C19.5268 22.7058 19.3249 22.6884 19.125 22.6699C19.9711 22.1768 20.737 21.5624 21.3975 20.8477C21.7858 20.5869 22.0898 20.214 22.2598 19.7725C23.1238 18.5252 23.7044 17.0686 23.9121 15.4932V18.9678ZM13.0029 22.1104C12.9873 22.108 12.9716 22.106 12.9561 22.1035C12.9591 22.0934 12.963 22.0835 12.9658 22.0732C12.9769 22.0865 12.9909 22.0973 13.0029 22.1104ZM9.02344 19.6953C10.7494 19.6954 12.1491 20.5697 12.1494 21.6484C12.1494 21.742 12.1376 21.8338 12.1172 21.9238C11.6584 21.8004 11.2162 21.6375 10.7939 21.4385C10.6529 21.111 10.1912 20.8458 9.58496 20.7324C9.16668 20.4364 8.7784 20.1014 8.4248 19.7324C8.61861 19.7089 8.81865 19.6953 9.02344 19.6953ZM18.2666 21.0879C17.9434 21.2791 17.6062 21.4488 17.2559 21.5938C17.2332 21.3631 17.0718 21.1517 16.8105 20.9785C17.2871 21.0106 17.7717 21.0469 18.2666 21.0879ZM13.5215 20.8262C13.3119 20.9221 13.139 21.0377 13.0146 21.167C12.9952 21.0433 12.9657 20.9255 12.9268 20.8154C13.1245 20.8184 13.3227 20.8214 13.5215 20.8262ZM20.0557 6.3418C22.1336 6.31861 23.9119 7.97627 23.9121 10.1201V12.9062C23.5582 10.2247 22.1231 7.88483 20.0557 6.3418ZM16.752 6.61816C17.6311 6.91396 18.4415 7.35777 19.1543 7.9209C15.4263 8.27737 12.2936 8.37407 8.89453 8.21387C9.56988 7.61486 10.3472 7.12878 11.1973 6.78418C13.0206 6.80797 14.8217 6.7536 16.752 6.61816ZM12.6162 6.59668C12.6178 6.63674 12.6194 6.67771 12.6211 6.71777H11.3789C11.379 6.71615 11.3788 6.71452 11.3789 6.71289C11.7748 6.5636 12.1854 6.44382 12.6084 6.3584C12.6108 6.43785 12.6131 6.51729 12.6162 6.59668ZM12 0C13.2937 0.000251406 14.3434 1.04913 14.3438 2.34277C14.3438 3.30122 13.7661 4.12089 12.9414 4.4834C12.4117 4.55138 11.8953 4.66048 11.3955 4.80957C11.3942 4.74088 11.395 4.67216 11.3936 4.60352C10.3939 4.33583 9.65723 3.42682 9.65723 2.34277C9.65762 1.04913 10.7063 0.000251563 12 0ZM12 1.11133C11.32 1.11158 10.7689 1.66281 10.7686 2.34277C10.7686 3.02307 11.3198 3.57494 12 3.5752C12.6802 3.57494 13.2324 3.02307 13.2324 2.34277C13.232 1.66281 12.68 1.11158 12 1.11133Z" fill="white"/>
<path d="M14.2012 6.20026C18.619 6.20067 22.2003 9.78181 22.2006 14.1995C22.2006 18.6176 18.6191 22.1999 14.2012 22.2001C9.78293 22.2001 6.20056 18.6178 6.20056 14.1995C6.20083 9.78154 9.7832 6.20026 14.2012 6.20026ZM18.3279 10.0742C17.929 9.67546 17.2824 9.67546 16.8837 10.0742L14.2012 12.7567L11.5188 10.0742C11.12 9.67546 10.4734 9.67546 10.0746 10.0742C9.67576 10.4731 9.67576 11.1197 10.0746 11.5185L12.757 14.2009L10.0746 16.8832C9.67576 17.2821 9.67576 17.9287 10.0746 18.3276C10.4735 18.7258 11.1202 18.7262 11.5188 18.3276L14.2012 15.6452L16.8837 18.3276C17.2825 18.7258 17.9293 18.7262 18.3279 18.3276C18.7265 17.929 18.726 17.2822 18.3279 16.8832L15.6455 14.2009L18.3279 11.5185C18.7265 11.1199 18.726 10.4732 18.3279 10.0742Z" fill="white"/>
</svg>
