<svg width="24" height="25" viewBox="0 0 24 25" fill="none" xmlns="http://www.w3.org/2000/svg">
<path d="M12 2.48266C13.1591 2.48291 14.0986 3.42309 14.0986 4.58227C14.0984 5.53068 13.4692 6.33006 12.6055 6.59008C12.5987 6.86676 12.5947 7.14351 12.5947 7.42016C12.5947 7.74404 12.6023 8.06795 12.6162 8.39184C12.6175 8.42197 12.6187 8.45244 12.6201 8.48266C14.5025 8.46232 16.4078 8.34855 18.5449 8.13793C20.7678 7.91887 22.7496 9.63827 22.75 11.9026V13.0852C22.3222 12.4525 21.7969 11.8916 21.1973 11.4211C20.9547 10.3135 19.8952 9.5127 18.6924 9.6311C13.849 10.1084 10.1479 10.1054 5.30566 9.62914C3.93563 9.4944 2.75025 10.5531 2.75 11.8997V19.1096C2.75027 20.4538 3.93077 21.5123 5.29883 21.3821C5.78167 21.3361 6.25352 21.2938 6.7168 21.2571C7.11728 20.5967 8.13704 20.1263 9.33398 20.1262C9.57306 20.1262 9.80497 20.1456 10.0264 20.1809C10.2414 20.6568 10.5051 21.1057 10.8125 21.5207C10.5457 21.2151 9.94682 21.0014 9.25 21.0012C8.30472 21.0012 7.53809 21.393 7.53809 21.8762C7.53834 22.3594 8.30488 22.7512 9.25 22.7512C10.1947 22.7509 10.9607 22.3592 10.9609 21.8762C10.9609 21.7759 10.926 21.6808 10.8652 21.5911C11.156 21.974 11.4845 22.3263 11.8438 22.6448C11.3882 23.2248 10.4374 23.6261 9.33398 23.6262C8.29626 23.6262 7.39182 23.2715 6.9082 22.7473C6.42962 22.7845 5.94163 22.8276 5.44141 22.8752C3.2226 23.0867 1.25027 21.3684 1.25 19.1096V11.8997C1.25025 9.63675 3.22991 7.91742 5.45215 8.13598C7.59008 8.34625 9.49603 8.4613 11.3789 8.48266C11.3803 8.45242 11.3825 8.42198 11.3838 8.39184C11.3977 8.06795 11.4053 7.74404 11.4053 7.42016C11.4053 7.1435 11.4003 6.86677 11.3936 6.59008C10.5304 6.32966 9.90059 5.53021 9.90039 4.58227C9.90039 3.42309 10.8409 2.48291 12 2.48266ZM21.25 13.4729C22.0715 14.4835 22.5645 15.7722 22.5645 17.176C22.5642 19.8983 20.7119 22.1866 18.1992 22.8528C17.8403 22.8203 17.4883 22.7882 17.1416 22.761C17.0448 22.8636 16.9307 22.9581 16.8037 23.0461C16.766 23.0469 16.7283 23.05 16.6904 23.05C16.0433 23.05 15.4212 22.9435 14.8389 22.7502C15.7703 22.7421 16.5212 22.3542 16.5215 21.8762C16.5215 21.3931 15.7547 21.0014 14.8096 21.0012C13.8978 21.0013 13.1542 21.366 13.1025 21.8254C12.8004 21.592 12.5218 21.3301 12.2705 21.0432C12.744 20.4973 13.6672 20.1262 14.7305 20.1262C15.9365 20.1263 16.9616 20.6044 17.3555 21.2727C17.7975 21.308 18.2483 21.3484 18.71 21.3918C20.0733 21.52 21.2497 20.4634 21.25 19.1223V13.4729ZM12 3.47778C11.3906 3.47802 10.8955 3.97285 10.8955 4.58227C10.8958 5.19148 11.3908 5.68554 12 5.68578C12.6092 5.68554 13.1033 5.19148 13.1035 4.58227C13.1035 3.97285 12.6094 3.47802 12 3.47778Z" fill="white"/>
<path d="M16.6904 11.301C19.9345 11.3013 22.5643 13.931 22.5645 17.175C22.5645 20.4193 19.9346 23.0498 16.6904 23.05C13.446 23.05 10.8154 20.4194 10.8154 17.175C10.8156 13.9308 13.4462 11.301 16.6904 11.301ZM20.3457 14.5618C20.0529 14.269 19.5781 14.2692 19.2852 14.5618L15.6484 18.1975L14.0957 16.6448C13.803 16.3522 13.328 16.3524 13.0352 16.6448C12.7423 16.9376 12.7424 17.4124 13.0352 17.7053L15.1182 19.7893C15.411 20.0819 15.8858 20.0818 16.1787 19.7893L20.3457 15.6223C20.6382 15.3294 20.6383 14.8546 20.3457 14.5618Z" fill="white"/>
</svg>
