<svg width="24" height="25" viewBox="0 0 24 25" fill="none" xmlns="http://www.w3.org/2000/svg">
<path d="M12.6121 6.34013C12.204 6.34013 11.796 6.34013 11.3879 6.34013C11.3891 6.37612 11.3902 6.41212 11.3912 6.44812C11.4005 6.7721 11.4052 7.09608 11.4052 7.42006C11.4052 7.74405 11.3982 8.06803 11.3842 8.39201C11.3827 8.42801 11.381 8.464 11.3793 8.5C11.7931 8.5 12.2069 8.5 12.6207 8.5C12.619 8.464 12.6173 8.42801 12.6158 8.39201C12.6018 8.06803 12.5948 7.74405 12.5948 7.42006C12.5948 7.09608 12.5995 6.7721 12.6088 6.44812C12.6098 6.41212 12.6109 6.37612 12.6121 6.34013Z" fill="white"/>
<path d="M12.0005 2.48266C13.1596 2.48291 14.0991 3.42309 14.0991 4.58227C14.0988 5.74123 13.1594 6.68065 12.0005 6.6809C10.8413 6.6809 9.9011 5.74139 9.90085 4.58227C9.90085 3.42294 10.8411 2.48266 12.0005 2.48266ZM12.0005 3.47778C11.3909 3.47778 10.896 3.97269 10.896 4.58227C10.8962 5.19163 11.391 5.68578 12.0005 5.68578C12.6097 5.68554 13.1037 5.19148 13.104 4.58227C13.104 3.97285 12.6098 3.47802 12.0005 3.47778Z" fill="white"/>
<path d="M8.00098 13C8.55326 13 9.00098 13.4477 9.00098 14V17C9.00098 17.5523 8.55326 18 8.00098 18C7.44879 17.9999 7.00098 17.5522 7.00098 17V14C7.00098 13.4478 7.44879 13.0001 8.00098 13ZM16.0078 13C16.5599 13.0003 17.0078 13.4479 17.0078 14V17C17.0078 17.5521 16.5599 17.9997 16.0078 18C15.4555 18 15.0078 17.5523 15.0078 17V14C15.0078 13.4477 15.4555 13 16.0078 13Z" fill="white"/>
<path d="M14.7302 20.126C16.2766 20.126 17.53 20.9095 17.53 21.876C17.53 22.8425 16.2766 23.626 14.7302 23.626C13.4399 23.626 12.3563 23.0791 12.032 22.3369C11.7075 23.0791 10.624 23.626 9.33371 23.626C7.7874 23.6259 6.53391 22.8424 6.53391 21.876C6.53391 20.9095 7.7874 20.126 9.33371 20.126C10.6236 20.126 11.7071 20.6723 12.032 21.4141C12.3568 20.6723 13.4404 20.126 14.7302 20.126ZM9.24973 21.001C8.30445 21.001 7.53781 21.3927 7.53781 21.876C7.53781 22.3592 8.30445 22.751 9.24973 22.751C10.1947 22.7508 10.9607 22.3591 10.9607 21.876C10.9607 21.3928 10.1947 21.0012 9.24973 21.001ZM14.8093 21.001C13.864 21.0011 13.0974 21.3928 13.0974 21.876C13.0974 22.3592 13.864 22.7509 14.8093 22.751C15.7545 22.7509 16.5212 22.3592 16.5212 21.876C16.5212 21.3928 15.7545 21.0011 14.8093 21.001Z" fill="white"/>
<path d="M1.25 11.8992C1.25025 9.63632 3.22991 7.91699 5.45215 8.13555C10.1977 8.60229 13.8 8.60513 18.5449 8.1375C20.7678 7.91844 22.7496 9.63784 22.75 11.9022V19.1219C22.7499 21.375 20.7856 23.0926 18.5703 22.8846C17.6454 22.7976 16.7653 22.7275 15.9141 22.6736C16.3988 22.4911 16.7129 22.2025 16.7129 21.8758C16.7128 21.6081 16.5019 21.3658 16.1592 21.1863C16.9788 21.2398 17.8246 21.3082 18.71 21.3914C20.0734 21.5196 21.2499 20.4632 21.25 19.1219V11.9022C21.2496 10.5551 20.0636 9.4957 18.6924 9.63067C13.849 10.108 10.1479 10.105 5.30566 9.62872C3.93563 9.49398 2.75025 10.5526 2.75 11.8992V19.1092C2.75002 20.4536 3.9306 21.5119 5.29883 21.3816C6.18819 21.2969 7.04034 21.2277 7.87012 21.1746C7.51505 21.3551 7.296 21.6027 7.2959 21.8758C7.2959 22.1977 7.60069 22.4829 8.07324 22.6658C7.22534 22.7187 6.35369 22.7879 5.44141 22.8748C3.22245 23.0863 1.25002 21.3682 1.25 19.1092V11.8992ZM12.8652 22.2576C12.9583 22.3694 13.0906 22.4713 13.2539 22.5584C13.0858 22.5546 12.9182 22.554 12.751 22.5516C12.7968 22.4613 12.8358 22.363 12.8652 22.2576ZM11.1426 22.2566C11.1718 22.3616 11.2104 22.4597 11.2559 22.5496C11.091 22.5515 10.9259 22.5513 10.7607 22.5545C10.9212 22.4681 11.0506 22.3669 11.1426 22.2566ZM11.21 21.0457C11.1589 21.1678 11.1211 21.3026 11.0986 21.4461C10.9506 21.2917 10.7273 21.1575 10.4502 21.0594C10.704 21.0532 10.9571 21.0486 11.21 21.0457ZM13.5449 21.0643C13.2737 21.162 13.0548 21.294 12.9092 21.4461C12.8868 21.3033 12.8495 21.1693 12.7988 21.0477C13.0466 21.0514 13.2952 21.0575 13.5449 21.0643Z" fill="white"/>
</svg>
