<svg width="24" height="24" viewBox="0 0 24 24" fill="none" xmlns="http://www.w3.org/2000/svg">
<path d="M0.0869141 10.1162C0.0873501 7.85419 2.06829 6.13221 4.29199 6.3584C5.57305 6.48893 6.77805 6.58782 7.94141 6.65918C7.43469 7.08028 6.97243 7.55268 6.55957 8.06641C5.77843 8.00603 4.97503 7.9356 4.14062 7.85059C2.77393 7.71153 1.58735 8.76939 1.58691 10.1162V18.9541C1.58695 20.2988 2.76951 21.3565 4.13477 21.2217C4.7891 21.157 5.42509 21.1016 6.04688 21.0518C6.16964 20.8124 6.36459 20.5935 6.61523 20.4043C6.82745 20.6635 7.05279 20.9114 7.29004 21.1475C7.11804 21.294 7.01869 21.4651 7.01855 21.6484C7.01875 22.1877 7.87389 22.6248 8.92871 22.625C9.01348 22.625 9.09686 22.6207 9.17871 22.6152C9.63738 22.8896 10.1207 23.1258 10.624 23.3232C10.1555 23.4984 9.60889 23.6025 9.02344 23.6025C7.81304 23.6024 6.76515 23.1702 6.24609 22.541C5.60836 22.5913 4.95533 22.6473 4.28223 22.7139C2.06168 22.9333 0.0869487 21.2127 0.0869141 18.9541V10.1162ZM23.9121 18.9668C23.912 21.2192 21.9476 22.94 19.7305 22.7246C19.5271 22.7048 19.3255 22.6883 19.126 22.6699C19.9722 22.1767 20.7379 21.5617 21.3984 20.8467C21.7865 20.586 22.09 20.2128 22.2598 19.7715C23.1235 18.5244 23.7044 17.0683 23.9121 15.4932V18.9668ZM14.2002 6.2002C16.0623 6.2002 17.7744 6.83832 19.1338 7.90527C19.1402 7.9103 19.1469 7.91488 19.1533 7.91992H19.1523C21.0078 9.38501 22.2001 11.6526 22.2002 14.2002C22.2002 17.4285 20.2868 20.2075 17.5332 21.4717C17.5185 21.4784 17.504 21.4855 17.4893 21.4922C16.4857 21.9455 15.3729 22.2002 14.2002 22.2002C9.78209 22.2 6.2002 18.6184 6.2002 14.2002C6.20026 11.8164 7.24425 9.67756 8.89844 8.21191C8.90431 8.20671 8.91013 8.20147 8.91602 8.19629C9.31715 7.84297 9.75334 7.52885 10.2197 7.26074C10.2473 7.2449 10.275 7.22939 10.3027 7.21387C10.3656 7.1787 10.4292 7.14483 10.4932 7.11133C10.545 7.08417 10.597 7.0573 10.6494 7.03125C10.7064 7.00298 10.7636 6.97518 10.8213 6.94824C10.8672 6.92681 10.9136 6.90633 10.96 6.88574C11.0283 6.85543 11.0967 6.82531 11.166 6.79688C11.1771 6.79233 11.1881 6.7877 11.1992 6.7832H11.2012C11.2602 6.75932 11.3192 6.7354 11.3789 6.71289C11.3825 6.71155 11.3861 6.71032 11.3896 6.70898C11.457 6.68372 11.5246 6.65923 11.5928 6.63574C11.6379 6.62016 11.6831 6.60465 11.7285 6.58984C11.7891 6.57019 11.85 6.55144 11.9111 6.5332C11.9809 6.5123 12.0515 6.49364 12.1221 6.47461C12.1612 6.46412 12.1999 6.45229 12.2393 6.44238C12.3288 6.41973 12.4191 6.39943 12.5098 6.37988C12.5407 6.37323 12.5715 6.36567 12.6025 6.35938C12.6045 6.35898 12.6065 6.35879 12.6084 6.3584C13.1228 6.25451 13.6552 6.20022 14.2002 6.2002ZM17.2012 10.3018C16.0923 9.41283 14.5734 9.14522 13.208 9.56055H13.207C12.0817 9.90347 11.1504 10.6867 10.6826 11.7227C9.05356 12.0524 7.79004 13.4505 7.79004 15.1826C7.79028 17.1419 9.40652 18.6716 11.3398 18.7139C11.3668 18.7161 11.3943 18.7187 11.4219 18.7188H18.1348C19.7742 18.7186 21.0924 17.3832 21.0928 15.748C21.0928 14.2755 20.0234 13.0451 18.6133 12.8154C18.5039 11.8439 17.9999 10.9427 17.2002 10.3027L17.2012 10.3018ZM13.9336 11.4355C14.6522 11.2647 15.4132 11.4318 15.9502 11.8623L15.9512 11.8633C16.5145 12.314 16.7326 12.9627 16.5996 13.5605C16.5339 13.8565 16.6062 14.1668 16.7959 14.4033C16.9857 14.6397 17.273 14.7773 17.5762 14.7773H18.1357C18.6586 14.7776 19.0928 15.2062 19.0928 15.748C19.0924 16.2902 18.658 16.7186 18.1348 16.7188H11.4736C11.4566 16.7179 11.4391 16.7158 11.4219 16.7158C10.4846 16.7158 9.79029 15.9939 9.79004 15.1826C9.79004 14.3719 10.4842 13.6495 11.4219 13.6494C11.8901 13.6493 12.2964 13.3241 12.3984 12.8672C12.5339 12.26 13.0341 11.704 13.79 11.4736L13.9336 11.4355ZM20.0537 6.34082C22.1323 6.31665 23.9116 7.97488 23.9121 10.1191V12.9062C23.5581 10.224 22.1221 7.88384 20.0537 6.34082ZM12 0C13.2937 0.000251406 14.3434 1.04913 14.3438 2.34277C14.3438 3.30122 13.7661 4.12089 12.9414 4.4834C12.4117 4.55138 11.8953 4.66048 11.3955 4.80957C11.3942 4.74088 11.395 4.67216 11.3936 4.60352C10.3939 4.33583 9.65723 3.42682 9.65723 2.34277C9.65762 1.04913 10.7063 0.000251563 12 0ZM12 1.11133C11.32 1.11158 10.7689 1.66281 10.7686 2.34277C10.7686 3.02307 11.3198 3.57494 12 3.5752C12.6802 3.57494 13.2324 3.02307 13.2324 2.34277C13.232 1.66281 12.68 1.11158 12 1.11133Z" fill="white"/>
</svg>
