<svg width="24" height="25" viewBox="0 0 24 25" fill="none" xmlns="http://www.w3.org/2000/svg">
<path d="M12 2.48266C13.1591 2.48291 14.0986 3.42309 14.0986 4.58227C14.0984 5.53068 13.4692 6.33006 12.6055 6.59008C12.5987 6.86676 12.5947 7.14351 12.5947 7.42016C12.5947 7.74404 12.6023 8.06795 12.6162 8.39184C12.6175 8.42197 12.6187 8.45244 12.6201 8.48266C14.5025 8.46232 16.4078 8.34855 18.5449 8.13793C20.7678 7.91887 22.7496 9.63827 22.75 11.9026V13.0852C22.3222 12.4525 21.7969 11.8916 21.1973 11.4211C20.9547 10.3135 19.8952 9.5127 18.6924 9.6311C13.849 10.1084 10.1479 10.1054 5.30566 9.62914C3.93563 9.4944 2.75025 10.5531 2.75 11.8997V19.1096C2.75027 20.4538 3.93077 21.5123 5.29883 21.3821C5.78167 21.3361 6.25352 21.2938 6.7168 21.2571C7.11728 20.5967 8.13704 20.1263 9.33398 20.1262C9.57339 20.1262 9.80554 20.1465 10.0273 20.1819C10.2423 20.6573 10.5053 21.1061 10.8125 21.5207C10.5457 21.2151 9.94682 21.0014 9.25 21.0012C8.30472 21.0012 7.53809 21.393 7.53809 21.8762C7.53834 22.3594 8.30488 22.7512 9.25 22.7512C10.1947 22.7509 10.9607 22.3592 10.9609 21.8762C10.9609 21.7748 10.9254 21.6787 10.8633 21.5881C11.1549 21.9725 11.4842 22.3262 11.8447 22.6457C11.3884 23.2252 10.437 23.6261 9.33398 23.6262C8.29626 23.6262 7.39182 23.2715 6.9082 22.7473C6.42962 22.7845 5.94163 22.8276 5.44141 22.8752C3.2226 23.0867 1.25027 21.3684 1.25 19.1096V11.8997C1.25025 9.63675 3.22991 7.91742 5.45215 8.13598C7.59008 8.34625 9.49603 8.4613 11.3789 8.48266C11.3803 8.45242 11.3825 8.42198 11.3838 8.39184C11.3977 8.06795 11.4053 7.74404 11.4053 7.42016C11.4053 7.1435 11.4003 6.86677 11.3936 6.59008C10.5304 6.32966 9.90059 5.53021 9.90039 4.58227C9.90039 3.42309 10.8409 2.48291 12 2.48266ZM21.25 13.4729C22.0715 14.4835 22.5645 15.7722 22.5645 17.176C22.5642 19.8982 20.7118 22.1855 18.1992 22.8518C17.409 22.7805 16.6508 22.7206 15.9141 22.6741C16.3986 22.4917 16.7126 22.2027 16.7129 21.8762C16.7128 21.6086 16.5018 21.3662 16.1592 21.1868C16.9788 21.2402 17.8247 21.3086 18.71 21.3918C20.0733 21.52 21.2497 20.4634 21.25 19.1223V13.4729ZM13.5449 21.0647C13.2738 21.1624 13.0548 21.2945 12.9092 21.4465C12.8868 21.3039 12.8494 21.1696 12.7988 21.0481C13.0466 21.0518 13.2952 21.058 13.5449 21.0647ZM12 3.47778C11.3906 3.47802 10.8955 3.97285 10.8955 4.58227C10.8958 5.19148 11.3908 5.68554 12 5.68578C12.6092 5.68554 13.1033 5.19148 13.1035 4.58227C13.1035 3.97285 12.6094 3.47802 12 3.47778Z" fill="white"/>
<path d="M16.6904 11.301C19.9345 11.3013 22.5643 13.931 22.5645 17.175C22.5645 20.4193 19.9346 23.0498 16.6904 23.05C13.446 23.05 10.8154 20.4194 10.8154 17.175C10.8156 13.9308 13.4462 11.301 16.6904 11.301ZM20.2939 18.4475C20.0987 18.2523 19.7822 18.2523 19.5869 18.4475L19.0371 18.9963L18.4883 18.4475C18.293 18.2523 17.9765 18.2523 17.7812 18.4475C17.5861 18.6428 17.586 18.9593 17.7812 19.1545L18.3301 19.7034L17.7812 20.2532C17.5862 20.4484 17.586 20.765 17.7812 20.9602C17.9765 21.1549 18.2932 21.1551 18.4883 20.9602L19.0371 20.4104L19.5869 20.9602C19.7822 21.1549 20.0989 21.1552 20.2939 20.9602C20.489 20.7651 20.4886 20.4485 20.2939 20.2532L19.7441 19.7034L20.2939 19.1545C20.489 18.9594 20.4887 18.6428 20.2939 18.4475ZM16.3291 13.2454C15.4877 13.2454 14.7033 13.3721 14.1113 13.594C13.8173 13.7042 13.5441 13.848 13.3359 14.0325C13.1283 14.2165 12.9405 14.4846 12.9404 14.8284V19.1623C12.9407 19.5059 13.1284 19.7742 13.3359 19.9582C13.5441 20.1426 13.8175 20.2865 14.1113 20.3967C14.7033 20.6185 15.4879 20.7453 16.3291 20.7454C16.4761 20.7453 16.622 20.7413 16.7646 20.7336C17.04 20.7185 17.252 20.4827 17.2373 20.2073C17.2223 19.9318 16.9864 19.721 16.7109 19.7356C16.5869 19.7423 16.4589 19.7453 16.3291 19.7454C15.5759 19.7453 14.9154 19.6301 14.4619 19.4602C14.2338 19.3746 14.0832 19.2837 13.999 19.2092C13.9613 19.1757 13.9462 19.1529 13.9404 19.1428V18.1584C13.9963 18.1828 14.0534 18.208 14.1113 18.2297C14.7033 18.4515 15.4878 18.5783 16.3291 18.5784C16.5352 18.5783 16.7378 18.5705 16.9336 18.5559C17.2085 18.5351 17.4147 18.2957 17.3945 18.0207C17.374 17.7457 17.1344 17.5387 16.8594 17.5588C16.6886 17.5716 16.5105 17.5783 16.3291 17.5784C15.5759 17.5783 14.9154 17.4631 14.4619 17.2932C14.2339 17.2077 14.0832 17.1177 13.999 17.0432C13.9608 17.0093 13.9461 16.9858 13.9404 16.9758V15.9914C13.9964 16.0158 14.0534 16.041 14.1113 16.0627C14.7033 16.2846 15.4878 16.4123 16.3291 16.4123C17.1707 16.4123 17.9559 16.2847 18.5479 16.0627C18.6055 16.0411 18.6621 16.0167 18.7178 15.9924V17.5373C18.7182 17.813 18.9421 18.0371 19.2178 18.0373C19.4935 18.0371 19.7174 17.813 19.7178 17.5373V14.8284C19.7177 14.4849 19.5307 14.2165 19.3232 14.0325C19.1151 13.848 18.8418 13.7043 18.5479 13.594C17.9559 13.372 17.1707 13.2454 16.3291 13.2454ZM16.3291 14.2454C17.0824 14.2454 17.7429 14.3605 18.1963 14.5305C18.4246 14.6162 18.5751 14.707 18.6592 14.7815C18.6798 14.7998 18.6918 14.817 18.7012 14.8284C18.6917 14.8398 18.6802 14.8575 18.6592 14.8762C18.5751 14.9507 18.4246 15.0406 18.1963 15.1262C17.7429 15.2962 17.0825 15.4123 16.3291 15.4123C15.5759 15.4123 14.9154 15.2961 14.4619 15.1262C14.2339 15.0407 14.0832 14.9507 13.999 14.8762C13.9781 14.8577 13.9664 14.8398 13.957 14.8284C13.9665 14.817 13.9782 14.8 13.999 14.7815C14.0832 14.7069 14.2335 14.6162 14.4619 14.5305C14.9154 14.3605 15.5757 14.2454 16.3291 14.2454Z" fill="white"/>
</svg>
