<svg width="24" height="24" viewBox="0 0 24 24" fill="none" xmlns="http://www.w3.org/2000/svg">
<path d="M0.0869141 10.1162C0.0873511 7.85419 2.06829 6.13221 4.29199 6.3584C5.57305 6.48893 6.77805 6.58782 7.94141 6.65918C7.43469 7.08028 6.97243 7.55268 6.55957 8.06641C5.77843 8.00603 4.97503 7.9356 4.14062 7.85059C2.77393 7.71153 1.58735 8.76939 1.58691 10.1162V18.9541C1.58695 20.2988 2.7695 21.3565 4.13477 21.2217C4.7891 21.157 5.42509 21.1016 6.04688 21.0518C6.16964 20.8124 6.36459 20.5935 6.61523 20.4043C6.82745 20.6635 7.05279 20.9114 7.29004 21.1475C7.11804 21.294 7.01869 21.4651 7.01855 21.6484C7.01875 22.1877 7.87389 22.6248 8.92871 22.625C9.01348 22.625 9.09686 22.6207 9.17871 22.6152C9.63738 22.8896 10.1207 23.1258 10.624 23.3232C10.1555 23.4984 9.60889 23.6025 9.02344 23.6025C7.81304 23.6024 6.76515 23.1702 6.24609 22.541C5.60836 22.5912 4.95533 22.6473 4.28223 22.7139C2.06167 22.9333 0.08695 21.2127 0.0869141 18.9541V10.1162ZM23.9121 18.9668C23.912 21.2192 21.9476 22.94 19.7305 22.7246C19.5271 22.7048 19.3255 22.6883 19.126 22.6699C19.9722 22.1767 20.7379 21.5617 21.3984 20.8467C21.7865 20.586 22.09 20.2128 22.2598 19.7715C23.1235 18.5244 23.7044 17.0683 23.9121 15.4932V18.9668ZM13.0029 22.1104C12.987 22.108 12.971 22.106 12.9551 22.1035C12.9581 22.0933 12.9629 22.0836 12.9658 22.0732C12.9769 22.0865 12.9909 22.0973 13.0029 22.1104ZM9.02344 19.6953C10.7494 19.6954 12.1491 20.5697 12.1494 21.6484C12.1494 21.742 12.1376 21.8338 12.1172 21.9238C11.6584 21.8004 11.2162 21.6375 10.7939 21.4385C10.6529 21.111 10.1912 20.8458 9.58496 20.7324C9.16668 20.4364 8.7784 20.1014 8.4248 19.7324C8.61861 19.7089 8.81865 19.6953 9.02344 19.6953ZM18.2686 21.0869C17.9448 21.2786 17.6069 21.4485 17.2559 21.5938C17.2332 21.3632 17.0716 21.1516 16.8105 20.9785C17.2877 21.0106 17.773 21.0461 18.2686 21.0869ZM13.5215 20.8262C13.312 20.9221 13.139 21.0378 13.0146 21.167C12.9951 21.0431 12.9658 20.9247 12.9268 20.8145C13.1245 20.8175 13.3227 20.8214 13.5215 20.8262ZM20.0537 6.34082C22.1323 6.31664 23.9116 7.97488 23.9121 10.1191V12.9062C23.5581 10.224 22.1221 7.88384 20.0537 6.34082ZM16.749 6.61719C17.6289 6.91283 18.44 7.35657 19.1533 7.91992C15.4261 8.27629 12.2939 8.37399 8.89551 8.21387C9.57127 7.61461 10.3486 7.12776 11.1992 6.7832C13.021 6.80692 14.8206 6.75243 16.749 6.61719ZM12.6162 6.59668C12.6178 6.63674 12.6194 6.67771 12.6211 6.71777H11.3789C11.379 6.71615 11.3788 6.71452 11.3789 6.71289C11.7748 6.5636 12.1854 6.44382 12.6084 6.3584C12.6108 6.43785 12.6131 6.51729 12.6162 6.59668ZM12 0C13.2937 0.000251406 14.3434 1.04913 14.3438 2.34277C14.3438 3.30122 13.7661 4.12089 12.9414 4.4834C12.4117 4.55138 11.8953 4.66048 11.3955 4.80957C11.3942 4.74088 11.395 4.67216 11.3936 4.60352C10.3939 4.33583 9.65723 3.42682 9.65723 2.34277C9.65762 1.04913 10.7063 0.000251563 12 0ZM12 1.11133C11.32 1.11158 10.7689 1.66281 10.7686 2.34277C10.7686 3.02307 11.3198 3.57494 12 3.5752C12.6802 3.57494 13.2324 3.02307 13.2324 2.34277C13.232 1.66281 12.68 1.11158 12 1.11133Z" fill="white"/>
<path d="M14.2002 6.2002C18.6184 6.2002 22.2001 9.78202 22.2002 14.2002C22.2002 18.6185 18.6185 22.2002 14.2002 22.2002C9.78209 22.2 6.2002 18.6184 6.2002 14.2002C6.20032 9.78214 9.78216 6.20039 14.2002 6.2002ZM18.4512 8.95215C17.8992 8.95235 17.4514 9.40017 17.4512 9.95215V10.0654C16.1995 9.08749 14.5254 8.70009 12.8936 9.11816C11.9704 9.35545 11.128 9.83977 10.459 10.5186C9.79013 11.1973 9.31908 12.0454 9.0957 12.9717C8.87236 13.8979 8.90529 14.8675 9.19141 15.7764C9.47759 16.6852 10.006 17.4994 10.7197 18.1309C11.4334 18.7623 12.3061 19.1876 13.2432 19.3613C14.1802 19.535 15.1473 19.4508 16.04 19.1172C16.9327 18.7835 17.7183 18.2134 18.3115 17.4678C18.9048 16.722 19.2832 15.8285 19.4072 14.8838C19.4791 14.3363 19.0934 13.8337 18.5459 13.7617C17.9984 13.69 17.4967 14.0765 17.4248 14.624C17.348 15.2084 17.1132 15.7612 16.7461 16.2227C16.3789 16.6842 15.8927 17.0375 15.3398 17.2441C14.787 17.4507 14.1878 17.503 13.6074 17.3955C13.027 17.2879 12.4868 17.0237 12.0449 16.6328C11.6032 16.2419 11.2757 15.738 11.0986 15.1758C10.9217 14.6135 10.9019 14.0135 11.04 13.4404C11.1783 12.8673 11.4697 12.342 11.8838 11.9219C12.2977 11.5019 12.8182 11.2017 13.3896 11.0547C14.3911 10.7981 15.4084 11.0279 16.1758 11.6074H15.7939C15.242 11.6077 14.7941 12.0554 14.7939 12.6074C14.794 13.1595 15.2419 13.6072 15.7939 13.6074H18.4512C19.0033 13.6073 19.4511 13.1596 19.4512 12.6074V9.95215C19.451 9.40011 19.0032 8.95225 18.4512 8.95215Z" fill="white"/>
</svg>
