<svg width="25" height="24" viewBox="0 0 25 24" fill="none" xmlns="http://www.w3.org/2000/svg">
<path d="M12.1621 0C13.7483 0 15.0341 1.28586 15.0342 2.87207C15.0342 4.11253 14.2469 5.16561 13.1455 5.56738C13.1455 5.58129 13.1455 5.59547 13.1455 5.60938C13.1455 5.91656 13.1545 6.22398 13.1709 6.53125C15.2784 6.49778 17.4236 6.35935 19.8418 6.1123C22.2093 5.87052 24.325 7.70357 24.3252 10.1201V18.9678C24.3248 21.3717 22.229 23.204 19.8691 22.9746C19.2157 22.9111 18.5827 22.8547 17.9658 22.8057C17.3591 23.2895 16.4172 23.6025 15.3574 23.6025C13.8328 23.6025 12.549 22.959 12.1621 22.083C11.775 22.9588 10.4922 23.6025 8.96777 23.6025C7.9004 23.6024 6.95288 23.2847 6.34668 22.7949C5.73661 22.8436 5.11252 22.9003 4.46973 22.9639C2.10688 23.1972 0.000307738 21.3657 0 18.9551V10.1172C0.000139493 7.70233 2.11372 5.86954 4.48047 6.11035C6.89955 6.35683 9.04533 6.49573 11.1533 6.53027C11.1697 6.22331 11.1807 5.91625 11.1807 5.60938C11.1807 5.59547 11.1797 5.58129 11.1797 5.56738C10.0782 5.16563 9.29004 4.11255 9.29004 2.87207C9.29007 1.28603 10.5761 0.000263851 12.1621 0ZM15.4512 20.4951C14.3319 20.4951 13.4248 20.9591 13.4248 21.5312C13.425 21.8641 13.7325 22.16 14.21 22.3496C14.5591 22.4833 14.9952 22.5644 15.4688 22.5645C15.6075 22.5644 15.7429 22.556 15.874 22.543C16.7898 22.4433 17.4772 22.029 17.4775 21.5312C17.4775 20.9592 16.5702 20.4953 15.4512 20.4951ZM8.86816 20.4951C7.74903 20.4951 6.8418 20.9591 6.8418 21.5312C6.84196 21.7527 6.9792 21.9565 7.21094 22.125C7.58863 22.3801 8.19354 22.5479 8.87695 22.5479C9.43109 22.5478 9.93368 22.4369 10.3057 22.2598C10.6691 22.0725 10.8943 21.8158 10.8945 21.5312C10.8945 20.9592 9.98713 20.4952 8.86816 20.4951ZM4.27832 8.09961C3.05428 7.97506 2.00014 8.92266 2 10.1172V18.9551C2.00031 20.1473 3.05091 21.0943 4.27344 20.9736C4.81105 20.9205 5.33633 20.873 5.85156 20.8301C6.31199 20.0317 7.53186 19.4591 8.96777 19.459C10.4916 19.459 11.7745 20.1022 12.1621 20.9775C12.5495 20.102 13.8334 19.459 15.3574 19.459C16.8002 19.4591 18.0242 20.0374 18.4795 20.8418C18.9953 20.8845 19.5222 20.9318 20.0625 20.9844C21.2799 21.1027 22.3248 20.1578 22.3252 18.9678V10.1201C22.3249 8.92503 21.2704 7.97734 20.0449 8.10254C14.2988 8.68956 10.0229 8.68491 4.27832 8.09961ZM8.19434 11.8008C8.74632 11.8009 9.19407 12.2488 9.19434 12.8008V16.3828C9.19408 16.9348 8.74633 17.3827 8.19434 17.3828H7.19434C6.64221 17.3828 6.19459 16.9349 6.19434 16.3828V12.8008C6.1946 12.2487 6.64221 11.8008 7.19434 11.8008H8.19434ZM17.1318 11.8008C17.6836 11.8012 18.1316 12.2489 18.1318 12.8008V16.3828C18.1316 16.9347 17.6837 17.3824 17.1318 17.3828H16.1318C15.5797 17.3828 15.1321 16.9349 15.1318 16.3828V12.8008C15.1321 12.2487 15.5797 11.8008 16.1318 11.8008H17.1318ZM12.1631 1.63574C11.4751 1.63597 10.917 2.1938 10.917 2.88184C10.917 3.56991 11.4751 4.1277 12.1631 4.12793C12.8511 4.1277 13.4092 3.5699 13.4092 2.88184C13.4091 2.1938 12.8511 1.63597 12.1631 1.63574Z" fill="white"/>
</svg>
